# Blender v2.79 (sub 0) OBJ File: 'lwlplknfff3.blend'
# www.blender.org
mtllib knife_handle.mtl
o Cube.005
v -0.702449 2.510925 0.497230
v -0.000004 2.510925 0.422449
v 0.702441 2.510925 6.903911
v -0.000004 2.510925 7.560902
v -0.000004 1.752075 0.497230
v -0.000004 3.269776 0.497230
v -0.000004 3.269776 5.966989
v -0.000004 1.752075 5.966989
v 0.702441 2.510925 3.802567
v -0.702449 2.510925 5.966989
v 0.702441 2.510925 1.245044
v -0.000004 3.269776 3.802567
v -0.000004 1.752075 3.802567
v -0.702449 2.510925 3.802567
v 0.702441 2.510925 0.497230
v -0.000004 3.269776 1.245044
v -0.000004 1.752075 1.245044
v -0.702449 2.510925 1.245044
v -0.702449 2.510925 6.903911
v -0.000004 1.752075 6.903911
v -0.000004 3.269776 6.903911
v 0.702441 2.510925 5.966989
v -0.526838 2.510925 7.396654
v -0.526838 3.080063 0.497230
v -0.526838 2.510925 0.441144
v -0.526838 1.941788 6.903911
v -0.000004 3.080063 0.441144
v 0.526830 2.510925 0.441144
v -0.000004 1.941788 0.441144
v 0.526830 3.080063 6.903911
v 0.526830 2.510925 7.396654
v 0.526830 1.941788 0.497230
v -0.000004 3.080063 7.396654
v -0.000004 1.941788 7.396654
v -0.526838 3.080063 5.966989
v -0.526838 1.941788 3.802567
v 0.526830 3.080063 3.802567
v 0.526830 1.941788 5.966989
v -0.000004 3.269776 5.285918
v -0.000004 1.752075 5.285918
v 0.702441 2.510925 5.285918
v -0.702449 2.510925 5.285918
v -0.526838 3.080063 3.802567
v 0.526830 1.941788 3.802567
v -0.526838 1.941788 1.245044
v 0.526830 3.080063 1.245044
v 0.702441 2.510925 2.220941
v -0.000004 3.269776 2.220941
v -0.000004 1.752075 2.220941
v -0.702449 2.510925 2.220941
v -0.526838 3.080063 1.245044
v 0.526830 1.941788 1.245044
v -0.526838 1.941788 0.497230
v 0.526830 3.080063 0.497230
v 0.702441 2.510925 0.721574
v -0.000004 3.269776 0.721574
v -0.000004 1.752075 0.721574
v -0.702449 2.510925 0.721574
v -0.526838 1.941788 5.966989
v 0.526830 3.080063 5.966989
v -0.526838 3.080063 6.903911
v 0.526830 1.941788 6.903911
v -0.702449 2.510925 6.341185
v -0.000004 1.752075 6.341185
v -0.000004 3.269776 6.341185
v 0.702441 2.510925 6.341186
v -0.390251 2.089342 7.268906
v -0.390251 2.932509 7.268906
v -0.390251 2.089342 0.455685
v -0.390251 2.932509 0.455685
v 0.390243 2.089342 7.268906
v 0.390243 2.932509 7.268906
v 0.390243 2.089342 0.455685
v 0.390243 2.932509 0.455685
v -0.526838 3.080063 5.285918
v -0.526838 1.941788 5.285918
v 0.526830 3.080063 5.285918
v 0.526830 1.941788 5.285918
v -0.526838 3.080063 2.220941
v 0.526830 1.941788 2.220941
v -0.526838 1.941788 2.220941
v 0.526830 3.080063 2.220941
v -0.526838 3.080063 0.721574
v 0.526830 1.941788 0.721574
v -0.526838 1.941788 0.721574
v 0.526830 3.080063 0.721574
v -0.526838 1.941788 6.341186
v 0.526830 3.080063 6.341186
v -0.526838 3.080063 6.341186
v 0.526830 1.941788 6.341186
vt 0.500000 0.003492
vt 0.500000 0.013968
vt 0.333333 0.013968
vt 0.333333 0.003492
vt 0.333333 0.000000
vt 0.500000 0.000000
vt 0.666667 0.000000
vt 0.666667 0.003492
vt 0.666667 0.013968
vt 0.166667 0.166667
vt 0.166667 0.333333
vt 0.000000 0.333333
vt 0.000000 0.166667
vt 0.000000 0.000000
vt 0.166667 0.000000
vt 0.333333 0.000000
vt 0.333333 0.166667
vt 0.333333 0.333333
vt 0.364012 0.500000
vt 0.390289 0.500000
vt 0.390289 0.666667
vt 0.364012 0.666667
vt 0.333333 0.666667
vt 0.333333 0.500000
vt 0.333333 0.333333
vt 0.364012 0.333333
vt 0.390289 0.333333
vt 0.166667 0.500000
vt 0.000000 0.500000
vt 0.000000 0.333333
vt 0.166667 0.333333
vt 0.333333 0.333333
vt 0.333333 0.500000
vt 0.333333 0.666667
vt 0.166667 0.666667
vt 0.000000 0.666667
vt 0.003492 0.833333
vt 0.013968 0.833333
vt 0.013968 1.000000
vt 0.003492 1.000000
vt 0.000000 1.000000
vt 0.000000 0.833333
vt 0.000000 0.666667
vt 0.003492 0.666667
vt 0.013968 0.666667
vt 0.996508 0.166667
vt 0.986032 0.166667
vt 0.986032 0.000000
vt 0.996508 0.000000
vt 1.000000 0.000000
vt 1.000000 0.166667
vt 1.000000 0.333333
vt 0.996508 0.333333
vt 0.986032 0.333333
vt 0.741095 0.166667
vt 0.723622 0.166667
vt 0.723622 0.000000
vt 0.741095 0.000000
vt 0.772898 0.000000
vt 0.772898 0.166667
vt 0.772898 0.333333
vt 0.741095 0.333333
vt 0.723622 0.333333
vt 0.258905 0.833333
vt 0.276378 0.833333
vt 0.276378 1.000000
vt 0.258905 1.000000
vt 0.227102 1.000000
vt 0.227102 0.833333
vt 0.227102 0.666667
vt 0.258905 0.666667
vt 0.276378 0.666667
vt 0.508831 0.500000
vt 0.582685 0.500000
vt 0.582685 0.666667
vt 0.508831 0.666667
vt 0.439565 0.666667
vt 0.439565 0.500000
vt 0.439565 0.333333
vt 0.508831 0.333333
vt 0.582685 0.333333
vt 0.500000 0.258905
vt 0.500000 0.276378
vt 0.333333 0.276378
vt 0.333333 0.258905
vt 0.333333 0.227102
vt 0.500000 0.227102
vt 0.666667 0.227102
vt 0.666667 0.258905
vt 0.666667 0.276378
vt 0.628255 0.500000
vt 0.652699 0.500000
vt 0.652699 0.666667
vt 0.628255 0.666667
vt 0.628255 0.333333
vt 0.652699 0.333333
vt 0.842164 0.166667
vt 0.842164 0.000000
vt 0.916019 0.000000
vt 0.916019 0.166667
vt 0.916019 0.333333
vt 0.842164 0.333333
vt 0.157836 0.833333
vt 0.157836 1.000000
vt 0.083981 1.000000
vt 0.083981 0.833333
vt 0.083981 0.666667
vt 0.157836 0.666667
vt 0.500000 0.157836
vt 0.333333 0.157836
vt 0.333333 0.083981
vt 0.500000 0.083981
vt 0.666667 0.083981
vt 0.666667 0.157836
vt 0.663175 0.500000
vt 0.666667 0.500000
vt 0.666667 0.666667
vt 0.663175 0.666667
vt 0.663175 0.333333
vt 0.666667 0.333333
vt 0.961589 0.166667
vt 0.961589 0.000000
vt 0.961589 0.333333
vt 0.038411 0.833333
vt 0.038411 1.000000
vt 0.038411 0.666667
vt 0.500000 0.038411
vt 0.333333 0.038411
vt 0.666667 0.038411
vt 0.500000 0.302655
vt 0.500000 0.333333
vt 0.333333 0.302655
vt 0.666667 0.302655
vt 0.666667 0.333333
vt 0.302655 0.833333
vt 0.333333 0.833333
vt 0.333333 1.000000
vt 0.302655 1.000000
vt 0.302655 0.666667
vt 0.333333 0.666667
vt 0.697345 0.166667
vt 0.666667 0.166667
vt 0.666667 0.000000
vt 0.697345 0.000000
vt 0.697345 0.333333
vt 0.666667 0.333333
vt 0.407762 0.500000
vt 0.407762 0.666667
vt 0.407762 0.333333
vn -0.8285 0.0000 -0.5600
vn -1.0000 0.0000 0.0000
vn -0.7233 0.6905 0.0000
vn -0.6078 0.5819 -0.5403
vn -0.1330 0.1205 -0.9837
vn -0.1713 0.0000 -0.9852
vn -0.1330 -0.1205 -0.9837
vn -0.6078 -0.5819 -0.5403
vn -0.7233 -0.6905 0.0000
vn 0.0000 0.0000 -1.0000
vn 0.0000 0.1621 -0.9868
vn 0.1330 0.1205 -0.9837
vn 0.1713 0.0000 -0.9852
vn 0.1330 -0.1205 -0.9837
vn 0.0000 -0.1621 -0.9868
vn 0.9811 0.0000 0.1932
vn 1.0000 0.0000 0.0000
vn 0.7233 0.6905 0.0000
vn 0.7079 0.6779 0.1981
vn 0.5781 0.5398 0.6119
vn 0.6942 0.0000 0.7197
vn 0.5781 -0.5398 0.6119
vn 0.7079 -0.6779 0.1981
vn 0.7233 -0.6905 0.0000
vn 0.0000 0.0000 1.0000
vn 0.0000 0.6798 0.7333
vn -0.5781 0.5398 0.6119
vn -0.6942 0.0000 0.7197
vn -0.5781 -0.5398 0.6119
vn 0.0000 -0.6798 0.7333
vn 0.0000 -0.8287 -0.5597
vn 0.0000 -1.0000 0.0000
vn 0.6078 -0.5819 -0.5403
vn 0.0000 0.8287 -0.5597
vn 0.0000 1.0000 0.0000
vn 0.6078 0.5819 -0.5403
vn 0.8285 0.0000 -0.5600
vn -0.9811 0.0000 0.1932
vn -0.7079 0.6779 0.1981
vn -0.7079 -0.6779 0.1981
vn 0.0000 -0.9788 0.2049
vn 0.0000 0.9788 0.2049
usemtl handle
s 1
f 1/1/1 58/2/2 83/3/3 24/4/4
f 1/1/1 24/4/4 70/5/5 25/6/6
f 1/1/1 25/6/6 69/7/7 53/8/8
f 1/1/1 53/8/8 85/9/9 58/2/2
f 2/10/10 25/11/6 70/12/5 27/13/11
f 2/10/10 27/13/11 74/14/12 28/15/13
f 2/10/10 28/15/13 73/16/14 29/17/15
f 2/10/10 29/17/15 69/18/7 25/11/6
f 3/19/16 66/20/17 88/21/18 30/22/19
f 3/19/16 30/22/19 72/23/20 31/24/21
f 3/19/16 31/24/21 71/25/22 62/26/23
f 3/19/16 62/26/23 90/27/24 66/20/17
f 4/28/25 31/29/21 72/30/20 33/31/26
f 4/28/25 33/31/26 68/32/27 23/33/28
f 4/28/25 23/33/28 67/34/29 34/35/30
f 4/28/25 34/35/30 71/36/22 31/29/21
f 5/37/31 57/38/32 85/39/9 53/40/8
f 5/37/31 53/40/8 69/41/7 29/42/15
f 5/37/31 29/42/15 73/43/14 32/44/33
f 5/37/31 32/44/33 84/45/24 57/38/32
f 6/46/34 56/47/35 86/48/18 54/49/36
f 6/46/34 54/49/36 74/50/12 27/51/11
f 6/46/34 27/51/11 70/52/5 24/53/4
f 6/46/34 24/53/4 83/54/3 56/47/35
f 7/55/35 65/56/35 88/57/18 60/58/18
f 7/55/35 60/58/18 77/59/18 39/60/35
f 7/55/35 39/60/35 75/61/3 35/62/3
f 7/55/35 35/62/3 89/63/3 65/56/35
f 8/64/32 64/65/32 87/66/9 59/67/9
f 8/64/32 59/67/9 76/68/9 40/69/32
f 8/64/32 40/69/32 78/70/24 38/71/24
f 8/64/32 38/71/24 90/72/24 64/65/32
f 9/73/17 47/74/17 82/75/18 37/76/18
f 9/73/17 37/76/18 77/77/18 41/78/17
f 9/73/17 41/78/17 78/79/24 44/80/24
f 9/73/17 44/80/24 80/81/24 47/74/17
f 10/82/2 63/83/2 89/84/3 35/85/3
f 10/82/2 35/85/3 75/86/3 42/87/2
f 10/82/2 42/87/2 76/88/9 59/89/9
f 10/82/2 59/89/9 87/90/9 63/83/2
f 11/91/17 55/92/17 86/93/18 46/94/18
f 11/91/17 46/94/18 82/75/18 47/74/17
f 11/91/17 47/74/17 80/81/24 52/95/24
f 11/91/17 52/95/24 84/96/24 55/92/17
f 12/97/35 39/60/35 77/59/18 37/98/18
f 12/97/35 37/98/18 82/99/18 48/100/35
f 12/97/35 48/100/35 79/101/3 43/102/3
f 12/97/35 43/102/3 75/61/3 39/60/35
f 13/103/32 40/69/32 76/68/9 36/104/9
f 13/103/32 36/104/9 81/105/9 49/106/32
f 13/103/32 49/106/32 80/107/24 44/108/24
f 13/103/32 44/108/24 78/70/24 40/69/32
f 14/109/2 42/87/2 75/86/3 43/110/3
f 14/109/2 43/110/3 79/111/3 50/112/2
f 14/109/2 50/112/2 81/113/9 36/114/9
f 14/109/2 36/114/9 76/88/9 42/87/2
f 15/115/37 28/116/13 74/117/12 54/118/36
f 15/115/37 54/118/36 86/93/18 55/92/17
f 15/115/37 55/92/17 84/96/24 32/119/33
f 15/115/37 32/119/33 73/120/14 28/116/13
f 16/121/35 48/100/35 82/99/18 46/122/18
f 16/121/35 46/122/18 86/48/18 56/47/35
f 16/121/35 56/47/35 83/54/3 51/123/3
f 16/121/35 51/123/3 79/101/3 48/100/35
f 17/124/32 49/106/32 81/105/9 45/125/9
f 17/124/32 45/125/9 85/39/9 57/38/32
f 17/124/32 57/38/32 84/45/24 52/126/24
f 17/124/32 52/126/24 80/107/24 49/106/32
f 18/127/2 50/112/2 79/111/3 51/128/3
f 18/127/2 51/128/3 83/3/3 58/2/2
f 18/127/2 58/2/2 85/9/9 45/129/9
f 18/127/2 45/129/9 81/113/9 50/112/2
f 19/130/38 23/131/28 68/32/27 61/132/39
f 19/130/38 61/132/39 89/84/3 63/83/2
f 19/130/38 63/83/2 87/90/9 26/133/40
f 19/130/38 26/133/40 67/134/29 23/131/28
f 20/135/41 34/136/30 67/137/29 26/138/40
f 20/135/41 26/138/40 87/66/9 64/65/32
f 20/135/41 64/65/32 90/72/24 62/139/23
f 20/135/41 62/139/23 71/140/22 34/136/30
f 21/141/42 33/142/26 72/143/20 30/144/19
f 21/141/42 30/144/19 88/57/18 65/56/35
f 21/141/42 65/56/35 89/63/3 61/145/39
f 21/141/42 61/145/39 68/146/27 33/142/26
f 22/147/17 41/78/17 77/77/18 60/148/18
f 22/147/17 60/148/18 88/21/18 66/20/17
f 22/147/17 66/20/17 90/27/24 38/149/24
f 22/147/17 38/149/24 78/79/24 41/78/17
