# Blender v2.79 (sub 0) OBJ File: ''
# www.blender.org
mtllib torso_fixed_link.mtl
o torso_fixed_link_torso_fixed_link
v -0.148316 0.123305 -0.018569
v -0.159329 0.099519 0.443306
v -0.148316 0.123305 0.443306
v -0.117466 -0.155350 -0.018569
v -0.125949 -0.150084 -0.018569
v -0.035066 -0.155350 -0.018569
v -0.127432 -0.152834 -0.018569
v -0.164945 -0.073882 -0.018569
v -0.164945 0.073882 -0.018569
v -0.035065 0.152225 -0.018569
v -0.033566 -0.155350 -0.018167
v -0.135010 0.145890 0.443306
v -0.135011 0.145890 -0.018569
v -0.035065 0.155350 -0.018569
v -0.125949 0.150084 -0.018569
v -0.117465 0.155350 -0.018569
v -0.117465 -0.155350 0.443306
v -0.127432 -0.152834 0.443306
v -0.159330 -0.099519 -0.018569
v -0.168288 -0.072369 -0.018569
v -0.159330 0.099519 -0.018569
v -0.168288 0.072368 -0.018569
v -0.032467 0.152225 -0.017069
v -0.032467 -0.155350 -0.017069
v -0.148316 -0.123305 -0.018569
v -0.135010 -0.145890 0.443306
v -0.148316 -0.123305 0.443306
v -0.127432 0.152834 0.443306
v -0.117465 0.155350 0.443306
v -0.032467 0.152225 0.441806
v -0.032065 -0.155350 0.440306
v -0.032065 0.152225 0.440306
v -0.156432 0.098347 0.443306
v -0.159329 -0.099519 0.443306
v -0.167944 -0.074762 -0.018569
v -0.167943 -0.074762 0.443306
v -0.145549 -0.121854 -0.018569
v -0.167944 0.074762 -0.018569
v -0.145549 0.121854 -0.018569
v -0.033565 0.152225 -0.018167
v -0.127432 0.152834 -0.018569
v -0.035065 -0.155350 0.443306
v -0.035065 0.152225 0.443306
v -0.156432 -0.098347 0.443306
v -0.135011 -0.145890 -0.018569
v -0.167943 0.074762 0.443306
v -0.032065 0.152225 -0.015569
v -0.032066 -0.155350 -0.015569
v -0.033565 -0.155350 0.442904
v -0.033565 0.152225 0.442904
v -0.032467 -0.155350 0.441806
v -0.168287 0.072368 0.443306
v -0.168287 -0.072369 0.443306
v -0.035065 0.155350 0.443306
v -0.033565 0.155350 0.442904
v -0.032467 0.155350 0.441806
v -0.032065 0.155350 0.440306
v -0.032467 0.155350 -0.017069
v -0.032065 0.155350 -0.015569
v -0.033565 0.155350 -0.018167
vt 0.411945 0.000000
vt 0.441345 0.600169
vt 0.411945 0.600169
vt 0.105062 0.596271
vt 0.115542 0.603114
vt 0.003272 0.596271
vt 0.117374 0.599540
vt 0.163715 0.702132
vt 0.163715 0.894139
vt 0.003272 0.995939
vt 0.001402 0.596271
vt 0.178905 0.927452
vt 0.208933 0.987707
vt 0.192504 0.958360
vt 0.384030 0.600169
vt 0.384030 0.000000
vt 0.003272 1.000000
vt 0.115542 0.993157
vt 0.105062 1.000000
vt 0.990222 0.600169
vt 0.977765 0.000000
vt 0.990222 0.000000
vt 0.977765 0.600169
vt 0.156778 0.668819
vt 0.167844 0.704098
vt 0.126736 0.987707
vt 0.156778 0.927452
vt 0.143172 0.958360
vt 0.167844 0.892172
vt 0.441345 0.000000
vt 0.000000 0.995939
vt 0.000000 0.596271
vt 0.716759 0.000000
vt 0.744674 0.600169
vt 0.716759 0.600169
vt 0.218290 0.996731
vt 0.230596 1.000000
vt 0.003863 0.000000
vt 0.384030 0.001949
vt 0.003863 0.001949
vt 0.182482 0.925930
vt 0.230596 0.596271
vt 0.178905 0.668819
vt 0.218290 0.599540
vt 0.208933 0.608563
vt 0.192504 0.637910
vt 0.687359 0.600169
vt 0.687359 0.000000
vt 0.167419 0.700988
vt 0.656759 0.600169
vt 0.656759 0.000000
vt 0.139754 0.639796
vt 0.471945 0.000000
vt 0.167419 0.895282
vt 0.139754 0.956474
vt 0.001402 0.995939
vt 0.766909 0.000000
vt 0.766909 0.600169
vt 0.754452 0.600169
vt 0.754452 0.000000
vt 0.117374 0.996731
vt 0.332340 0.596271
vt 0.332340 0.995939
vt 0.182482 0.670341
vt 0.126736 0.608563
vt 0.744674 0.000000
vt 0.143172 0.637910
vt 1.000000 0.600169
vt 1.000000 0.000000
vt 0.471945 0.600169
vt 0.003863 0.594321
vt 0.384030 0.594321
vt 0.003863 0.596271
vt 0.384030 0.596271
vt 0.334214 0.596271
vt 0.334215 0.995939
vt 0.335632 0.995939
vt 0.384030 0.000000
vt 0.335632 0.596271
vt 0.474903 0.600169
vt 0.474903 0.000000
vt 0.653800 0.600169
vt 0.653800 0.000000
vt 0.332340 1.000000
vt 0.334215 1.000000
vt 0.335632 1.000000
vt 0.868634 0.600169
vt 0.872337 0.003898
vt 0.871841 0.598220
vt 0.872337 0.596271
vt 0.870485 0.599647
vt 0.868633 0.000000
vt 0.870485 0.000522
vt 0.871841 0.001949
vt 0.000000 0.001949
vt 0.000000 0.000000
vt 0.000000 1.000000
vt 0.001402 1.000000
vt 0.000000 0.594321
vt 0.000000 0.596271
vt 0.744674 0.000000
vt 0.744674 0.600169
vt 0.167844 0.704098
vt 0.168268 0.895282
vt 0.167844 0.892172
vt 0.168268 0.700988
vt 0.874189 0.599647
vt 0.872833 0.598220
vt 0.872833 0.001949
vt 0.876041 0.600169
vt 0.872337 0.596271
vt 0.876041 0.000000
vt 0.872337 0.003898
vt 0.874189 0.000522
vn -0.9074 0.4202 0.0000
vn -0.0000 -0.0000 -1.0000
vn 0.2588 -0.0000 -0.9659
vn 0.0000 0.0000 1.0000
vn -0.8616 0.5076 0.0000
vn -0.2447 -0.9696 0.0000
vn 0.7071 -0.0000 -0.7071
vn -0.8616 -0.5076 0.0000
vn 0.9659 -0.0000 0.2588
vn -0.9074 -0.4202 0.0000
vn -0.9445 -0.3286 0.0000
vn -0.9445 0.3286 0.0000
vn -0.2447 0.9696 0.0000
vn -0.6756 -0.7373 0.0000
vn 0.9659 -0.0000 -0.2588
vn 0.2588 -0.0000 0.9659
vn 0.7071 -0.0000 0.7071
vn -1.0000 0.0000 0.0000
vn 0.0000 1.0000 0.0000
vn -0.9898 -0.1422 0.0000
vn 1.0000 0.0000 -0.0000
vn -0.6756 0.7373 0.0000
vn 0.0001 0.0000 1.0000
vn -0.9898 0.1422 0.0000
vn -0.9898 0.1423 0.0000
vn 0.0000 -1.0000 -0.0000
usemtl Material_001.009
s off
f 1/1/1 2/2/1 3/3/1
f 4/4/2 5/5/2 6/6/2
f 7/7/2 5/5/2 4/4/2
f 8/8/2 9/9/2 6/6/2
f 10/10/3 11/11/3 6/6/3
f 2/12/4 12/13/4 3/14/4
f 3/3/5 12/15/5 1/1/5
f 12/15/5 13/16/5 1/1/5
f 14/17/2 15/18/2 16/19/2
f 7/20/6 17/21/6 18/22/6
f 4/23/6 17/21/6 7/20/6
f 8/8/2 19/24/2 20/25/2
f 13/26/2 21/27/2 1/28/2
f 22/29/2 21/27/2 9/9/2
f 1/1/1 21/30/1 2/2/1
f 11/11/7 23/31/7 24/32/7
f 25/33/8 26/34/8 27/35/8
f 2/12/4 28/36/4 12/13/4
f 29/37/4 28/36/4 2/12/4
f 30/38/9 31/39/9 32/40/9
f 29/37/4 2/12/4 33/41/4
f 17/42/4 34/43/4 18/44/4
f 34/43/4 26/45/4 18/44/4
f 26/45/4 34/43/4 27/46/4
f 27/35/10 34/47/10 25/33/10
f 25/33/10 34/47/10 19/48/10
f 19/24/2 35/49/2 20/25/2
f 36/50/11 35/51/11 34/47/11
f 34/47/11 35/51/11 19/48/11
f 37/52/2 19/24/2 8/8/2
f 37/52/2 8/8/2 6/6/2
f 5/5/2 37/52/2 6/6/2
f 21/30/12 38/53/12 2/2/12
f 21/27/2 22/29/2 38/54/2
f 15/18/2 39/55/2 13/26/2
f 39/55/2 21/27/2 13/26/2
f 21/27/2 39/55/2 9/9/2
f 9/9/2 39/55/2 14/17/2
f 15/18/2 14/17/2 39/55/2
f 23/31/7 11/11/7 40/56/7
f 11/11/3 10/10/3 40/56/3
f 29/57/13 16/58/13 41/59/13
f 41/59/13 28/60/13 29/57/13
f 15/18/2 41/61/2 16/19/2
f 15/18/2 13/26/2 41/61/2
f 17/42/4 42/62/4 43/63/4
f 34/43/4 17/42/4 44/64/4
f 29/37/4 44/64/4 17/42/4
f 33/41/4 44/64/4 29/37/4
f 5/5/2 7/7/2 45/65/2
f 37/52/2 5/5/2 45/65/2
f 26/34/8 25/33/8 45/66/8
f 19/24/2 45/65/2 25/67/2
f 37/52/2 45/65/2 19/24/2
f 18/22/14 45/68/14 7/20/14
f 26/69/14 45/68/14 18/22/14
f 38/53/12 46/70/12 2/2/12
f 47/71/15 48/72/15 23/73/15
f 23/73/15 48/72/15 24/74/15
f 43/63/16 49/75/16 50/76/16
f 42/62/16 49/75/16 43/63/16
f 49/75/17 30/77/17 50/76/17
f 31/39/9 30/38/9 51/78/9
f 49/75/17 51/79/17 30/77/17
f 9/9/2 14/17/2 10/10/2
f 9/9/2 10/10/2 6/6/2
f 52/80/18 22/81/18 53/82/18
f 53/82/18 22/81/18 20/83/18
f 8/8/2 20/25/2 22/29/2
f 22/29/2 9/9/2 8/8/2
f 29/37/4 43/63/4 54/84/4
f 17/42/4 43/63/4 29/37/4
f 43/63/16 55/85/16 54/84/16
f 55/85/16 43/63/16 50/76/16
f 55/85/17 30/77/17 56/86/17
f 55/85/17 50/76/17 30/77/17
f 14/87/19 16/58/19 57/88/19
f 29/57/19 57/88/19 16/58/19
f 58/89/19 57/88/19 59/90/19
f 14/87/19 57/88/19 60/91/19
f 58/89/19 60/91/19 57/88/19
f 57/88/19 29/57/19 54/92/19
f 55/93/19 56/94/19 57/88/19
f 55/93/19 57/88/19 54/92/19
f 30/38/9 57/95/9 56/96/9
f 30/38/9 32/40/9 57/95/9
f 53/82/20 35/51/20 36/50/20
f 53/82/20 20/83/20 35/51/20
f 58/97/7 40/56/7 60/98/7
f 23/31/7 40/56/7 58/97/7
f 60/98/3 40/56/3 14/17/3
f 14/17/3 40/56/3 10/10/3
f 59/99/15 47/71/15 58/100/15
f 58/100/15 47/71/15 23/73/15
f 57/95/21 47/71/21 59/99/21
f 47/71/21 57/95/21 32/40/21
f 12/101/22 41/59/22 13/102/22
f 28/60/22 41/59/22 12/101/22
f 53/103/23 46/104/23 52/105/23
f 44/64/4 46/104/4 34/43/4
f 36/106/4 46/104/4 53/103/4
f 33/41/4 2/12/4 46/104/4
f 34/43/4 46/104/4 36/106/4
f 46/104/4 44/64/4 33/41/4
f 22/81/24 52/80/24 46/70/24
f 38/53/25 22/81/25 46/70/25
f 32/40/21 48/72/21 47/71/21
f 31/39/21 48/72/21 32/40/21
f 11/107/26 24/108/26 51/109/26
f 4/23/26 6/110/26 51/109/26
f 11/107/26 51/109/26 6/110/26
f 17/21/26 4/23/26 51/109/26
f 48/111/26 51/109/26 24/108/26
f 42/112/26 17/21/26 51/109/26
f 51/109/26 48/111/26 31/113/26
f 49/114/26 42/112/26 51/109/26
